<svg xmlns="http://www.w3.org/2000/svg" xmlns:xlink="http://www.w3.org/1999/xlink" fill-rule="evenodd" clip-rule="evenodd">
    <symbol id="menu" viewBox="0 0 24 24">
        <path d="M24 5H0V1h24v4zm0 5H0v4h24v-4zm0 9H0v4h24v-4z"></path>
    </symbol>
    <symbol id="thumbup" viewBox="0 0 478.2 478.2">
        <g>
            <path d="M457.575,325.1c9.8-12.5,14.5-25.9,13.9-39.7c-0.6-15.2-7.4-27.1-13-34.4c6.5-16.2,9-41.7-12.7-61.5
		            c-15.9-14.5-42.9-21-80.3-19.2c-26.3,1.2-48.3,6.1-49.2,6.3h-0.1c-5,0.9-10.3,2-15.7,3.2c-0.4-6.4,0.7-22.3,12.5-58.1
		            c14-42.6,13.2-75.2-2.6-97c-16.6-22.9-43.1-24.7-50.9-24.7c-7.5,0-14.4,3.1-19.3,8.8c-11.1,12.9-9.8,36.7-8.4,47.7
		            c-13.2,35.4-50.2,122.2-81.5,146.3c-0.6,0.4-1.1,0.9-1.6,1.4c-9.2,9.7-15.4,20.2-19.6,29.4c-5.9-3.2-12.6-5-19.8-5h-61
		            c-23,0-41.6,18.7-41.6,41.6v162.5c0,23,18.7,41.6,41.6,41.6h61c8.9,0,17.2-2.8,24-7.6l23.5,2.8c3.6,0.5,67.6,8.6,133.3,7.3
		            c11.9,0.9,23.1,1.4,33.5,1.4c17.9,0,33.5-1.4,46.5-4.2c30.6-6.5,51.5-19.5,62.1-38.6c8.1-14.6,8.1-29.1,6.8-38.3
		            c19.9-18,23.4-37.9,22.7-51.9C461.275,337.1,459.475,330.2,457.575,325.1z M48.275,447.3c-8.1,0-14.6-6.6-14.6-14.6V270.1
		            c0-8.1,6.6-14.6,14.6-14.6h61c8.1,0,14.6,6.6,14.6,14.6v162.5c0,8.1-6.6,14.6-14.6,14.6h-61V447.3z M431.975,313.4
		            c-4.2,4.4-5,11.1-1.8,16.3c0,0.1,4.1,7.1,4.6,16.7c0.7,13.1-5.6,24.7-18.8,34.6c-4.7,3.6-6.6,9.8-4.6,15.4c0,0.1,4.3,13.3-2.7,25.8
		            c-6.7,12-21.6,20.6-44.2,25.4c-18.1,3.9-42.7,4.6-72.9,2.2c-0.4,0-0.9,0-1.4,0c-64.3,1.4-129.3-7-130-7.1h-0.1l-10.1-1.2
		            c0.6-2.8,0.9-5.8,0.9-8.8V270.1c0-4.3-0.7-8.5-1.9-12.4c1.8-6.7,6.8-21.6,18.6-34.3c44.9-35.6,88.8-155.7,90.7-160.9
		            c0.8-2.1,1-4.4,0.6-6.7c-1.7-11.2-1.1-24.9,1.3-29c5.3,0.1,19.6,1.6,28.2,13.5c10.2,14.1,9.8,39.3-1.2,72.7
		            c-16.8,50.9-18.2,77.7-4.9,89.5c6.6,5.9,15.4,6.2,21.8,3.9c6.1-1.4,11.9-2.6,17.4-3.5c0.4-0.1,0.9-0.2,1.3-0.3
		            c30.7-6.7,85.7-10.8,104.8,6.6c16.2,14.8,4.7,34.4,3.4,36.5c-3.7,5.6-2.6,12.9,2.4,17.4c0.1,0.1,10.6,10,11.1,23.3
		            C444.875,295.3,440.675,304.4,431.975,313.4z" />
        </g>
    </symbol>
    <symbol id="logo" viewBox="0 0 512 512">
        <g>
            <g>
                <path d="M437.838,239.5c-5.522,0-10,4.477-10,10v69.685c0,27.389-10.636,53.168-29.949,72.589l-33.544,33.731    c-1.863,1.874-2.909,4.409-2.909,7.051V438H212.094v-5.442c0-3.284-1.612-6.358-4.313-8.225l-17.374-12.013    c-29.622-20.481-53.156-48.636-68.059-81.421l-36.241-79.732c-4.329-9.524-1.205-20.726,7.428-26.635    c9.273-6.347,21.637-4.581,28.763,4.105l46.598,56.8c4.73,5.766,12.324,7.87,19.348,5.356c7.022-2.512,11.56-8.954,11.56-16.413    V41.045c0-11.604,9.44-21.045,21.045-21.045s21.045,9.441,21.045,21.045l-0.109,180.367c0,22.632,18.413,41.045,41.045,41.045    c12.363,0,23.459-5.502,30.99-14.178c7.531,8.676,18.627,14.178,30.99,14.178c22.632,0,41.045-18.413,41.045-41.045l-0.109-126.37    c0-11.604,9.441-21.045,21.046-21.045c11.605,0,21.045,9.441,21.045,21.045v80.46c-0.001,5.523,4.476,10,9.999,10    c5.522,0,10-4.477,10-10V95.043c0-22.632-18.413-41.045-41.045-41.045c-22.633,0-41.046,18.413-41.046,41.045v51.898    c-6.134-3.653-13.292-5.76-20.936-5.76c-12.363,0-23.459,5.502-30.99,14.178c-7.531-8.676-18.627-14.178-30.99-14.178    c-7.644,0-14.801,2.106-20.936,5.76V41.045C261.893,18.413,243.48,0,220.848,0s-41.045,18.413-41.045,41.045v226.152    l-42.042-51.248c-13.755-16.768-37.625-20.177-55.522-7.924c-16.665,11.407-22.695,33.03-14.338,51.415l36.241,79.733    c16.398,36.076,42.296,67.058,74.891,89.597l13.062,9.03v1.368c-8.546,2.925-14.71,11.032-14.71,20.557V502    c0,5.523,4.478,10,10,10h200.001c5.522,0,10-4.477,10-10v-42.274c0-9.98-6.767-18.404-15.951-20.94v-2.101l30.635-30.806    c23.065-23.194,35.768-53.982,35.768-86.692V249.5C447.838,243.977,443.36,239.5,437.838,239.5z M323.838,180.787    c0.745-10.933,9.853-19.606,20.972-19.606c11.604,0,21.045,9.441,21.045,21.045v39.186c0,11.604-9.44,21.045-21.045,21.045    c-11.119,0-20.227-8.674-20.972-19.606c0.017-0.478,0.037-0.956,0.037-1.439C323.875,221.412,323.855,181.266,323.838,180.787z     M261.784,182.226c0-11.604,9.44-21.045,21.045-21.045c11.119,0,20.227,8.674,20.972,19.606    c-0.017,0.478-0.037,40.625-0.037,40.625c0,0.482,0.02,0.96,0.037,1.439c-0.745,10.932-9.853,19.606-20.972,19.606    c-11.604,0-21.045-9.441-21.045-21.045V182.226z M377.386,492h-0.001H197.384v-32.274c0-0.952,0.774-1.726,1.726-1.726h176.55    c0.951,0,1.726,0.774,1.726,1.726V492z" fill="#FFFFFF" />
            </g>
        </g>
        <g>
            <g>
                <path d="M276.947,347.625l-0.492-2.411c-5.212-25.512-27.895-44.028-53.935-44.028c-5.522,0-10,4.477-10,10    c0,5.523,4.478,10,10,10c16.579,0,31.021,11.789,34.34,28.033l0.493,2.412c0.968,4.735,5.135,7.999,9.786,7.999    c0.664,0,1.338-0.066,2.014-0.205C274.564,358.319,278.053,353.035,276.947,347.625z" fill="#FFFFFF" />
            </g>
        </g>
        <g>
            <g>
                <path d="M444.907,205.93c-1.859-1.86-4.439-2.93-7.069-2.93s-5.21,1.07-7.07,2.93c-1.861,1.86-2.93,4.44-2.93,7.07    s1.07,5.21,2.93,7.07c1.86,1.86,4.44,2.93,7.07,2.93c2.629,0,5.21-1.071,7.069-2.93c1.861-1.86,2.931-4.44,2.931-7.07    S446.767,207.79,444.907,205.93z" fill="#FFFFFF" />
            </g>
        </g>
    </symbol>
    <symbol id="key" viewBox="0 0 482.8 482.8">
        <g>
            <path d="M255.2,209.3c-5.3,5.3-5.3,13.8,0,19.1c21.9,21.9,21.9,57.5,0,79.4l-115,115c-21.9,21.9-57.5,21.9-79.4,0l-17.3-17.3
			c-21.9-21.9-21.9-57.5,0-79.4l115-115c5.3-5.3,5.3-13.8,0-19.1s-13.8-5.3-19.1,0l-115,115C8.7,322.7,0,343.6,0,365.8
			c0,22.2,8.6,43.1,24.4,58.8l17.3,17.3c16.2,16.2,37.5,24.3,58.8,24.3s42.6-8.1,58.8-24.3l115-115c32.4-32.4,32.4-85.2,0-117.6
			C269.1,204,260.5,204,255.2,209.3z"/>
            <path d="M458.5,58.2l-17.3-17.3c-32.4-32.4-85.2-32.4-117.6,0l-115,115c-32.4,32.4-32.4,85.2,0,117.6c5.3,5.3,13.8,5.3,19.1,0
			s5.3-13.8,0-19.1c-21.9-21.9-21.9-57.5,0-79.4l115-115c21.9-21.9,57.5-21.9,79.4,0l17.3,17.3c21.9,21.9,21.9,57.5,0,79.4l-115,115
			c-5.3,5.3-5.3,13.8,0,19.1c2.6,2.6,6.1,4,9.5,4s6.9-1.3,9.5-4l115-115c15.7-15.7,24.4-36.6,24.4-58.8
			C482.8,94.8,474.2,73.9,458.5,58.2z"/>
        </g>
    </symbol>
</svg>